<svg width="922" height="880" xmlns="http://www.w3.org/2000/svg" xmlns:xlink="http://www.w3.org/1999/xlink" viewBox="0 0 806.00 620.00">
<g id="graph0" class="graph" transform="translate(4, 616)">
<title>snakemake_dag</title>
<polygon fill="white" stroke="transparent" points="-4,4 -4,-616 802,-616 802,4 -4,4"/>
<!-- 0 -->
<g id="node1" class="node">
<title>0</title>
<path fill="none" stroke="rgb(128, 128, 128)" stroke-width="2" d="M393,-36C393,-36 363,-36 363,-36 357,-36 351,-30 351,-24 351,-24 351,-12 351,-12 351,-6 357,0 363,0 363,0 393,0 393,0 399,0 405,-6 405,-12 405,-12 405,-24 405,-24 405,-30 399,-36 393,-36"/>
<text text-anchor="middle" x="378" y="-15" font-family="Helvetica,sans-Serif" font-size="10.00">all</text>
</g>
<!-- 1 -->
<g id="node2" class="node">
<title>1</title>
<path fill="none" stroke="rgb(219, 131, 198)" stroke-width="2" d="M108.47,-612C108.47,-612 71.53,-612 71.53,-612 65.53,-612 59.53,-606 59.53,-600 59.53,-600 59.53,-588 59.53,-588 59.53,-582 65.53,-576 71.53,-576 71.53,-576 108.47,-576 108.47,-576 114.47,-576 120.47,-582 120.47,-588 120.47,-588 120.47,-600 120.47,-600 120.47,-606 114.47,-612 108.47,-612"/>
<text text-anchor="middle" x="90" y="-591" font-family="Helvetica,sans-Serif" font-size="10.00">polypolish</text>
</g>
<!-- 1&#45;&gt;0 -->
<g id="edge12" class="edge">
<title>1-&gt;0</title>
<path fill="none" stroke="rgb(128, 128, 128)" d="M70.03,-575.95C43.51,-551.31 0,-502.95 0,-451 0,-451 0,-451 0,-161 0,-116.87 8.46,-98.16 44,-72 90.63,-37.68 263.65,-24.78 340.64,-20.67" stroke-width="1.5"/>
<polygon fill="grey" stroke="grey" stroke-width="1.5" points="341.03,-24.16 350.84,-20.15 340.68,-17.16 341.03,-24.16"/>
</g>
<!-- 2 -->
<g id="node3" class="node">
<title>2</title>
<path fill="none" stroke="rgb(255, 131, 131)" stroke-width="2" d="M70,-468C70,-468 40,-468 40,-468 34,-468 28,-462 28,-456 28,-456 28,-444 28,-444 28,-438 34,-432 40,-432 40,-432 70,-432 70,-432 76,-432 82,-438 82,-444 82,-444 82,-456 82,-456 82,-462 76,-468 70,-468"/>
<text text-anchor="middle" x="55" y="-447" font-family="Helvetica,sans-Serif" font-size="10.00">busco</text>
</g>
<!-- 1&#45;&gt;2 -->
<g id="edge16" class="edge">
<title>1-&gt;2</title>
<path fill="none" stroke="rgb(128, 128, 128)" d="M85.78,-575.87C79.79,-551.56 68.76,-506.82 61.66,-478.01" stroke-width="1.5"/>
<polygon fill="grey" stroke="grey" stroke-width="1.5" points="65.03,-477.06 59.24,-468.19 58.23,-478.74 65.03,-477.06"/>
</g>
<!-- 3 -->
<g id="node4" class="node">
<title>3</title>
<path fill="none" stroke="rgb(255, 131, 131)" stroke-width="2" d="M117,-396C117,-396 87,-396 87,-396 81,-396 75,-390 75,-384 75,-384 75,-372 75,-372 75,-366 81,-360 87,-360 87,-360 117,-360 117,-360 123,-360 129,-366 129,-372 129,-372 129,-384 129,-384 129,-390 123,-396 117,-396"/>
<text text-anchor="middle" x="102" y="-375" font-family="Helvetica,sans-Serif" font-size="10.00">quast</text>
</g>
<!-- 1&#45;&gt;3 -->
<g id="edge17" class="edge">
<title>1-&gt;3</title>
<path fill="none" stroke="rgb(128, 128, 128)" d="M90.96,-575.85C93.04,-538.83 97.95,-451.18 100.46,-406.39" stroke-width="1.5"/>
<polygon fill="grey" stroke="grey" stroke-width="1.5" points="103.97,-406.41 101.03,-396.23 96.98,-406.02 103.97,-406.41"/>
</g>
<!-- 5 -->
<g id="node6" class="node">
<title>5</title>
<path fill="none" stroke="rgb(255, 192, 0)" stroke-width="2" d="M286.03,-540C286.03,-540 233.97,-540 233.97,-540 227.97,-540 221.97,-534 221.97,-528 221.97,-528 221.97,-516 221.97,-516 221.97,-510 227.97,-504 233.97,-504 233.97,-504 286.03,-504 286.03,-504 292.03,-504 298.03,-510 298.03,-516 298.03,-516 298.03,-528 298.03,-528 298.03,-534 292.03,-540 286.03,-540"/>
<text text-anchor="middle" x="260" y="-519" font-family="Helvetica,sans-Serif" font-size="10.00">prokka_strain</text>
</g>
<!-- 1&#45;&gt;5 -->
<g id="edge18" class="edge">
<title>1-&gt;5</title>
<path fill="none" stroke="rgb(128, 128, 128)" d="M120.39,-580.49C145.99,-569.95 183.04,-554.69 212.54,-542.54" stroke-width="1.5"/>
<polygon fill="grey" stroke="grey" stroke-width="1.5" points="213.91,-545.76 221.83,-538.72 211.25,-539.29 213.91,-545.76"/>
</g>
<!-- 2&#45;&gt;0 -->
<g id="edge13" class="edge">
<title>2-&gt;0</title>
<path fill="none" stroke="rgb(128, 128, 128)" d="M52.43,-432C48.64,-405.4 42,-352.3 42,-307 42,-307 42,-307 42,-161 42,-118.66 43.34,-98.95 76,-72 115.84,-39.13 268.79,-25.64 340.49,-21.04" stroke-width="1.5"/>
<polygon fill="grey" stroke="grey" stroke-width="1.5" points="341.1,-24.5 350.86,-20.39 340.67,-17.52 341.1,-24.5"/>
</g>
<!-- 3&#45;&gt;0 -->
<g id="edge8" class="edge">
<title>3-&gt;0</title>
<path fill="none" stroke="rgb(128, 128, 128)" d="M97.55,-359.65C91.12,-333.02 80,-280.4 80,-235 80,-235 80,-235 80,-161 80,-120.55 70.08,-100.28 99,-72 132.8,-38.96 272.48,-25.68 340.48,-21.1" stroke-width="1.5"/>
<polygon fill="grey" stroke="grey" stroke-width="1.5" points="340.99,-24.57 350.75,-20.43 340.54,-17.58 340.99,-24.57"/>
</g>
<!-- 4 -->
<g id="node5" class="node">
<title>4</title>
<path fill="none" stroke="rgb(255, 192, 0)" stroke-width="2" d="M251.75,-180C251.75,-180 212.25,-180 212.25,-180 206.25,-180 200.25,-174 200.25,-168 200.25,-168 200.25,-156 200.25,-156 200.25,-150 206.25,-144 212.25,-144 212.25,-144 251.75,-144 251.75,-144 257.75,-144 263.75,-150 263.75,-156 263.75,-156 263.75,-168 263.75,-168 263.75,-174 257.75,-180 251.75,-180"/>
<text text-anchor="middle" x="232" y="-159" font-family="Helvetica,sans-Serif" font-size="10.00">prokka_ref</text>
</g>
<!-- 4&#45;&gt;0 -->
<g id="edge15" class="edge">
<title>4-&gt;0</title>
<path fill="none" stroke="rgb(128, 128, 128)" d="M239.67,-143.91C248.96,-124.64 266.13,-93.24 288,-72 303.48,-56.97 324.01,-44.47 341.55,-35.38" stroke-width="1.5"/>
<polygon fill="grey" stroke="grey" stroke-width="1.5" points="343.55,-38.29 350.94,-30.69 340.43,-32.03 343.55,-38.29"/>
</g>
<!-- 6 -->
<g id="node7" class="node">
<title>6</title>
<path fill="none" stroke="rgb(131, 199, 255)" stroke-width="2" d="M224.27,-108C224.27,-108 119.73,-108 119.73,-108 113.73,-108 107.73,-102 107.73,-96 107.73,-96 107.73,-84 107.73,-84 107.73,-78 113.73,-72 119.73,-72 119.73,-72 224.27,-72 224.27,-72 230.27,-72 236.27,-78 236.27,-84 236.27,-84 236.27,-96 236.27,-96 236.27,-102 230.27,-108 224.27,-108"/>
<text text-anchor="middle" x="172" y="-87" font-family="Helvetica,sans-Serif" font-size="10.00">roary_strain_ref_pairwise</text>
</g>
<!-- 4&#45;&gt;6 -->
<g id="edge20" class="edge">
<title>4-&gt;6</title>
<path fill="none" stroke="rgb(128, 128, 128)" d="M217.17,-143.7C209.98,-135.3 201.2,-125.07 193.31,-115.86" stroke-width="1.5"/>
<polygon fill="grey" stroke="grey" stroke-width="1.5" points="195.83,-113.42 186.66,-108.1 190.51,-117.97 195.83,-113.42"/>
</g>
<!-- 5&#45;&gt;0 -->
<g id="edge1" class="edge">
<title>5-&gt;0</title>
<path fill="none" stroke="rgb(128, 128, 128)" d="M274.85,-503.97C295.39,-478.58 330,-428.47 330,-379 330,-379 330,-379 330,-233 330,-164.17 353.93,-85.85 368,-45.75" stroke-width="1.5"/>
<polygon fill="grey" stroke="grey" stroke-width="1.5" points="371.35,-46.78 371.43,-36.18 364.76,-44.42 371.35,-46.78"/>
</g>
<!-- 5&#45;&gt;6 -->
<g id="edge19" class="edge">
<title>5-&gt;6</title>
<path fill="none" stroke="rgb(128, 128, 128)" d="M240.47,-503.86C214.54,-479.11 172,-430.63 172,-379 172,-379 172,-379 172,-233 172,-193 172,-146.65 172,-118.08" stroke-width="1.5"/>
<polygon fill="grey" stroke="grey" stroke-width="1.5" points="175.5,-118.05 172,-108.05 168.5,-118.05 175.5,-118.05"/>
</g>
<!-- 8 -->
<g id="node9" class="node">
<title>8</title>
<path fill="none" stroke="#8c84ff" stroke-width="2" d="M711.48,-468C711.48,-468 654.52,-468 654.52,-468 648.52,-468 642.52,-462 642.52,-456 642.52,-456 642.52,-444 642.52,-444 642.52,-438 648.52,-432 654.52,-432 654.52,-432 711.48,-432 711.48,-432 717.48,-432 723.48,-438 723.48,-444 723.48,-444 723.48,-456 723.48,-456 723.48,-462 717.48,-468 711.48,-468"/>
<text text-anchor="middle" x="683" y="-447" font-family="Helvetica,sans-Serif" font-size="10.00">move_gff_files</text>
</g>
<!-- 5&#45;&gt;8 -->
<g id="edge22" class="edge">
<title>5-&gt;8</title>
<path fill="none" stroke="rgb(128, 128, 128)" d="M298.28,-514.66C374.89,-501.99 547.02,-473.5 632.64,-459.33" stroke-width="1.5"/>
<polygon fill="grey" stroke="grey" stroke-width="1.5" points="633.35,-462.76 642.64,-457.68 632.21,-455.86 633.35,-462.76"/>
</g>
<!-- 10 -->
<g id="node11" class="node">
<title>10</title>
<path fill="none" stroke="rgb(140, 132, 255)" stroke-width="2" d="M289.76,-324C289.76,-324 230.24,-324 230.24,-324 224.24,-324 218.24,-318 218.24,-312 218.24,-312 218.24,-300 218.24,-300 218.24,-294 224.24,-288 230.24,-288 230.24,-288 289.76,-288 289.76,-288 295.76,-288 301.76,-294 301.76,-300 301.76,-300 301.76,-312 301.76,-312 301.76,-318 295.76,-324 289.76,-324"/>
<text text-anchor="middle" x="260" y="-303" font-family="Helvetica,sans-Serif" font-size="10.00">move_faa_files</text>
</g>
<!-- 5&#45;&gt;10 -->
<g id="edge24" class="edge">
<title>5-&gt;10</title>
<path fill="none" stroke="rgb(128, 128, 128)" d="M260,-503.85C260,-466.83 260,-379.18 260,-334.39" stroke-width="1.5"/>
<polygon fill="grey" stroke="grey" stroke-width="1.5" points="263.5,-334.23 260,-324.23 256.5,-334.23 263.5,-334.23"/>
</g>
<!-- 6&#45;&gt;0 -->
<g id="edge7" class="edge">
<title>6-&gt;0</title>
<path fill="none" stroke="rgb(128, 128, 128)" d="M222.13,-71.97C258.83,-59.5 307.81,-42.85 340.99,-31.57" stroke-width="1.5"/>
<polygon fill="grey" stroke="grey" stroke-width="1.5" points="342.41,-34.79 350.76,-28.26 340.16,-28.16 342.41,-34.79"/>
</g>
<!-- 7 -->
<g id="node8" class="node">
<title>7</title>
<path fill="none" stroke="rgb(131, 199, 255)" stroke-width="2" d="M721.55,-396C721.55,-396 644.45,-396 644.45,-396 638.45,-396 632.45,-390 632.45,-384 632.45,-384 632.45,-372 632.45,-372 632.45,-366 638.45,-360 644.45,-360 644.45,-360 721.55,-360 721.55,-360 727.55,-360 733.55,-366 733.55,-372 733.55,-372 733.55,-384 733.55,-384 733.55,-390 727.55,-396 721.55,-396"/>
<text text-anchor="middle" x="683" y="-375" font-family="Helvetica,sans-Serif" font-size="10.00">roary_within_group</text>
</g>
<!-- 7&#45;&gt;0 -->
<g id="edge10" class="edge">
<title>7-&gt;0</title>
<path fill="none" stroke="rgb(128, 128, 128)" d="M699.71,-359.81C722.35,-334.62 760,-285.2 760,-235 760,-235 760,-235 760,-161 760,-108.98 729.2,-97.74 684,-72 638.66,-46.17 486.94,-29.1 415.64,-22.31" stroke-width="1.5"/>
<polygon fill="grey" stroke="grey" stroke-width="1.5" points="415.6,-18.79 405.32,-21.35 414.95,-25.76 415.6,-18.79"/>
</g>
<!-- 9 -->
<g id="node10" class="node">
<title>9</title>
<path fill="none" stroke="rgb(140, 132, 255)" stroke-width="2" d="M638.87,-324C638.87,-324 573.13,-324 573.13,-324 567.13,-324 561.13,-318 561.13,-312 561.13,-312 561.13,-300 561.13,-300 561.13,-294 567.13,-288 573.13,-288 573.13,-288 638.87,-288 638.87,-288 644.87,-288 650.87,-294 650.87,-300 650.87,-300 650.87,-312 650.87,-312 650.87,-318 644.87,-324 638.87,-324"/>
<text text-anchor="middle" x="606" y="-303" font-family="Helvetica,sans-Serif" font-size="10.00">gene_list_maker</text>
</g>
<!-- 7&#45;&gt;9 -->
<g id="edge23" class="edge">
<title>7-&gt;9</title>
<path fill="none" stroke="rgb(128, 128, 128)" d="M663.97,-359.7C654.46,-351.05 642.79,-340.45 632.43,-331.03" stroke-width="1.5"/>
<polygon fill="grey" stroke="grey" stroke-width="1.5" points="634.57,-328.24 624.81,-324.1 629.86,-333.42 634.57,-328.24"/>
</g>
<!-- 12 -->
<g id="node13" class="node">
<title>12</title>
<path fill="none" stroke="rgb(131, 199, 255)" stroke-width="2" d="M720.32,-252C720.32,-252 645.68,-252 645.68,-252 639.68,-252 633.68,-246 633.68,-240 633.68,-240 633.68,-228 633.68,-228 633.68,-222 639.68,-216 645.68,-216 645.68,-216 720.32,-216 720.32,-216 726.32,-216 732.32,-222 732.32,-228 732.32,-228 732.32,-240 732.32,-240 732.32,-246 726.32,-252 720.32,-252"/>
<text text-anchor="middle" x="683" y="-231" font-family="Helvetica,sans-Serif" font-size="10.00">roary_visualization</text>
</g>
<!-- 7&#45;&gt;12 -->
<g id="edge27" class="edge">
<title>7-&gt;12</title>
<path fill="none" stroke="rgb(128, 128, 128)" d="M683,-359.87C683,-335.67 683,-291.21 683,-262.39" stroke-width="1.5"/>
<polygon fill="grey" stroke="grey" stroke-width="1.5" points="686.5,-262.19 683,-252.19 679.5,-262.19 686.5,-262.19"/>
</g>
<!-- 8&#45;&gt;0 -->
<g id="edge11" class="edge">
<title>8-&gt;0</title>
<path fill="none" stroke="rgb(128, 128, 128)" d="M710.55,-431.82C744.57,-408.23 798,-362.36 798,-307 798,-307 798,-307 798,-161 798,-110.12 770.13,-97.32 726,-72 673.54,-41.9 494.15,-26.66 415.49,-21.3" stroke-width="1.5"/>
<polygon fill="grey" stroke="grey" stroke-width="1.5" points="415.29,-17.78 405.08,-20.61 414.82,-24.76 415.29,-17.78"/>
</g>
<!-- 8&#45;&gt;7 -->
<g id="edge21" class="edge">
<title>8-&gt;7</title>
<path fill="none" stroke="rgb(128, 128, 128)" d="M683,-431.7C683,-423.98 683,-414.71 683,-406.11" stroke-width="1.5"/>
<polygon fill="grey" stroke="grey" stroke-width="1.5" points="686.5,-406.1 683,-396.1 679.5,-406.1 686.5,-406.1"/>
</g>
<!-- 9&#45;&gt;0 -->
<g id="edge3" class="edge">
<title>9-&gt;0</title>
<path fill="none" stroke="rgb(128, 128, 128)" d="M609.51,-287.82C617.46,-243.4 631.32,-124.54 565,-72 521.2,-37.3 455.83,-25.32 415.11,-21.18" stroke-width="1.5"/>
<polygon fill="grey" stroke="grey" stroke-width="1.5" points="415.34,-17.69 405.07,-20.27 414.71,-24.66 415.34,-17.69"/>
</g>
<!-- 11 -->
<g id="node12" class="node">
<title>11</title>
<path fill="none" stroke="rgb(140, 132, 255)" stroke-width="2" d="M554.32,-252C554.32,-252 499.68,-252 499.68,-252 493.68,-252 487.68,-246 487.68,-240 487.68,-240 487.68,-228 487.68,-228 487.68,-222 493.68,-216 499.68,-216 499.68,-216 554.32,-216 554.32,-216 560.32,-216 566.32,-222 566.32,-228 566.32,-228 566.32,-240 566.32,-240 566.32,-246 560.32,-252 554.32,-252"/>
<text text-anchor="middle" x="527" y="-231" font-family="Helvetica,sans-Serif" font-size="10.00">fasta_curation</text>
</g>
<!-- 9&#45;&gt;11 -->
<g id="edge25" class="edge">
<title>9-&gt;11</title>
<path fill="none" stroke="rgb(128, 128, 128)" d="M586.47,-287.7C576.62,-278.97 564.51,-268.24 553.8,-258.75" stroke-width="1.5"/>
<polygon fill="grey" stroke="grey" stroke-width="1.5" points="556.11,-256.12 546.3,-252.1 551.47,-261.36 556.11,-256.12"/>
</g>
<!-- 10&#45;&gt;0 -->
<g id="edge4" class="edge">
<title>10-&gt;0</title>
<path fill="none" stroke="rgb(128, 128, 128)" d="M261.92,-287.78C267,-247.55 283.47,-145.27 326,-72 332.11,-61.48 340.78,-51.52 349.29,-43.12" stroke-width="1.5"/>
<polygon fill="grey" stroke="grey" stroke-width="1.5" points="351.78,-45.59 356.66,-36.18 346.98,-40.49 351.78,-45.59"/>
</g>
<!-- 10&#45;&gt;11 -->
<g id="edge26" class="edge">
<title>10-&gt;11</title>
<path fill="none" stroke="rgb(128, 128, 128)" d="M301.72,-294.06C349.29,-281.59 427.01,-261.21 477.58,-247.96" stroke-width="1.5"/>
<polygon fill="grey" stroke="grey" stroke-width="1.5" points="478.53,-251.33 487.32,-245.4 476.75,-244.55 478.53,-251.33"/>
</g>
<!-- 11&#45;&gt;0 -->
<g id="edge14" class="edge">
<title>11-&gt;0</title>
<path fill="none" stroke="rgb(128, 128, 128)" d="M556.04,-215.84C568.32,-206.87 581.31,-194.68 588,-180 594.64,-165.44 593.32,-159.09 588,-144 574.33,-105.25 563.58,-95.68 530,-72 495.07,-47.37 447.62,-33.25 415.08,-25.88" stroke-width="1.5"/>
<polygon fill="grey" stroke="grey" stroke-width="1.5" points="415.59,-22.41 405.07,-23.71 414.11,-29.25 415.59,-22.41"/>
</g>
<!-- 13 -->
<g id="node14" class="node">
<title>13</title>
<path fill="none" stroke="rgb(98, 209, 157)" stroke-width="2" d="M444.33,-180C444.33,-180 369.67,-180 369.67,-180 363.67,-180 357.67,-174 357.67,-168 357.67,-168 357.67,-156 357.67,-156 357.67,-150 363.67,-144 369.67,-144 369.67,-144 444.33,-144 444.33,-144 450.33,-144 456.33,-150 456.33,-156 456.33,-156 456.33,-168 456.33,-168 456.33,-174 450.33,-180 444.33,-180"/>
<text text-anchor="middle" x="407" y="-159" font-family="Helvetica,sans-Serif" font-size="10.00">cog_analysis_core</text>
</g>
<!-- 11&#45;&gt;13 -->
<g id="edge28" class="edge">
<title>11-&gt;13</title>
<path fill="none" stroke="rgb(128, 128, 128)" d="M497.64,-215.88C481.95,-206.72 462.44,-195.34 445.55,-185.48" stroke-width="1.5"/>
<polygon fill="grey" stroke="grey" stroke-width="1.5" points="446.87,-182.21 436.47,-180.19 443.34,-188.25 446.87,-182.21"/>
</g>
<!-- 14 -->
<g id="node15" class="node">
<title>14</title>
<path fill="none" stroke="rgb(98, 209, 157)" stroke-width="2" d="M567.44,-180C567.44,-180 486.56,-180 486.56,-180 480.56,-180 474.56,-174 474.56,-168 474.56,-168 474.56,-156 474.56,-156 474.56,-150 480.56,-144 486.56,-144 486.56,-144 567.44,-144 567.44,-144 573.44,-144 579.44,-150 579.44,-156 579.44,-156 579.44,-168 579.44,-168 579.44,-174 573.44,-180 567.44,-180"/>
<text text-anchor="middle" x="527" y="-159" font-family="Helvetica,sans-Serif" font-size="10.00">cog_analysis_shells</text>
</g>
<!-- 11&#45;&gt;14 -->
<g id="edge29" class="edge">
<title>11-&gt;14</title>
<path fill="none" stroke="rgb(128, 128, 128)" d="M527,-215.7C527,-207.98 527,-198.71 527,-190.11" stroke-width="1.5"/>
<polygon fill="grey" stroke="grey" stroke-width="1.5" points="530.5,-190.1 527,-180.1 523.5,-190.1 530.5,-190.1"/>
</g>
<!-- 12&#45;&gt;0 -->
<g id="edge2" class="edge">
<title>12-&gt;0</title>
<path fill="none" stroke="rgb(128, 128, 128)" d="M686.19,-215.94C691.23,-183.22 696.92,-111.4 659,-72 625.92,-37.62 484.09,-24.99 415.48,-20.83" stroke-width="1.5"/>
<polygon fill="grey" stroke="grey" stroke-width="1.5" points="415.31,-17.31 405.12,-20.23 414.9,-24.3 415.31,-17.31"/>
</g>
<!-- 13&#45;&gt;0 -->
<g id="edge9" class="edge">
<title>13-&gt;0</title>
<path fill="none" stroke="rgb(128, 128, 128)" d="M403.5,-143.87C398.54,-119.56 389.4,-74.82 383.52,-46.01" stroke-width="1.5"/>
<polygon fill="grey" stroke="grey" stroke-width="1.5" points="386.94,-45.29 381.51,-36.19 380.08,-46.69 386.94,-45.29"/>
</g>
<!-- 15 -->
<g id="node16" class="node">
<title>15</title>
<path fill="none" stroke="rgb(98, 209, 157)" stroke-width="2" d="M486.16,-108C486.16,-108 417.84,-108 417.84,-108 411.84,-108 405.84,-102 405.84,-96 405.84,-96 405.84,-84 405.84,-84 405.84,-78 411.84,-72 417.84,-72 417.84,-72 486.16,-72 486.16,-72 492.16,-72 498.16,-78 498.16,-84 498.16,-84 498.16,-96 498.16,-96 498.16,-102 492.16,-108 486.16,-108"/>
<text text-anchor="middle" x="452" y="-87" font-family="Helvetica,sans-Serif" font-size="10.00">cog_visualization</text>
</g>
<!-- 13&#45;&gt;15 -->
<g id="edge31" class="edge">
<title>13-&gt;15</title>
<path fill="none" stroke="rgb(128, 128, 128)" d="M418.12,-143.7C423.36,-135.56 429.7,-125.69 435.48,-116.7" stroke-width="1.5"/>
<polygon fill="grey" stroke="grey" stroke-width="1.5" points="438.54,-118.41 441,-108.1 432.65,-114.62 438.54,-118.41"/>
</g>
<!-- 14&#45;&gt;0 -->
<g id="edge5" class="edge">
<title>14-&gt;0</title>
<path fill="none" stroke="rgb(128, 128, 128)" d="M527.62,-143.89C527.41,-124.31 524.16,-92.33 507,-72 483.81,-44.52 444.12,-31.09 414.87,-24.65" stroke-width="1.5"/>
<polygon fill="grey" stroke="grey" stroke-width="1.5" points="415.5,-21.21 405.01,-22.66 414.12,-28.07 415.5,-21.21"/>
</g>
<!-- 14&#45;&gt;15 -->
<g id="edge30" class="edge">
<title>14-&gt;15</title>
<path fill="none" stroke="rgb(128, 128, 128)" d="M508.46,-143.7C499.2,-135.05 487.84,-124.45 477.74,-115.03" stroke-width="1.5"/>
<polygon fill="grey" stroke="grey" stroke-width="1.5" points="480.02,-112.37 470.33,-108.1 475.25,-117.49 480.02,-112.37"/>
</g>
<!-- 15&#45;&gt;0 -->
<g id="edge6" class="edge">
<title>15-&gt;0</title>
<path fill="none" stroke="rgb(128, 128, 128)" d="M433.71,-71.7C424.57,-63.05 413.36,-52.45 403.4,-43.03" stroke-width="1.5"/>
<polygon fill="grey" stroke="grey" stroke-width="1.5" points="405.75,-40.43 396.08,-36.1 400.94,-45.52 405.75,-40.43"/>
</g>
</g>
</svg>